<svg xmlns="http://www.w3.org/2000/svg" width="18" height="18" viewBox="0 0 18 18"><g><g><path fill="#8f0d9b" d="M10.318 11.634l.884-1.238a1 1 0 0 1 1.294-.296 11.425 11.425 0 0 0 4.583 1.364 1 1 0 0 1 .921.997v4.462a1 1 0 0 1-.898.995c-.53.055-1.064.082-1.602.082C6.94 18 0 11.06 0 2.5 0 1.962.027 1.428.082.898A1 1 0 0 1 1.077 0h4.462a1 1 0 0 1 .997.92A11.421 11.421 0 0 0 7.9 5.505a1 1 0 0 1-.296 1.294l-1.238.884a10.554 10.554 0 0 0 3.952 3.952zM5.744 5.668c-.54-1.164-.909-2.4-1.097-3.668H2.01c-.006.166-.01.333-.01.5C2 9.956 8.045 16 15.5 16c.167 0 .334-.003.5-.01v-2.637a13.406 13.406 0 0 1-3.668-1.097l-1.357 1.9a12.403 12.403 0 0 1-1.588-.75l-.058-.033a12.554 12.554 0 0 1-4.702-4.702l-.033-.058a12.435 12.435 0 0 1-.75-1.588z"/></g></g></svg>